<svg xmlns="http://www.w3.org/2000/svg" width="130" height="17.217" viewBox="0 0 130 17.217">
  <g id="Logo_Design" data-name="Logo Design" transform="translate(0 0)">
    <path id="Path_297" data-name="Path 297" d="M99.768-86.83a9.288,9.288,0,0,1-3.569-.683,9.022,9.022,0,0,1-2.879-1.868A8.75,8.75,0,0,1,91.4-92.149a8.251,8.251,0,0,1-.7-3.382A8.122,8.122,0,0,1,91.01-97.8a8.177,8.177,0,0,1,.9-2.035,8.449,8.449,0,0,1,1.409-1.719,8.979,8.979,0,0,1,1.831-1.328,9.46,9.46,0,0,1,2.172-.856,9.647,9.647,0,0,1,2.445-.3,9.65,9.65,0,0,1,2.446.3,9.591,9.591,0,0,1,2.178.856,8.766,8.766,0,0,1,1.831,1.328,8.752,8.752,0,0,1,1.409,1.719,8.057,8.057,0,0,1,.906,2.035,8.123,8.123,0,0,1,.316,2.272,8.359,8.359,0,0,1-.316,2.3,8.424,8.424,0,0,1-.906,2.079,8.888,8.888,0,0,1-1.409,1.763,8.9,8.9,0,0,1-1.831,1.365,9.219,9.219,0,0,1-2.178.881A9.482,9.482,0,0,1,99.768-86.83Zm0-.807a5.16,5.16,0,0,0,2.5-.59,5.341,5.341,0,0,0,1.831-1.646,7.675,7.675,0,0,0,1.123-2.5,12.393,12.393,0,0,0,.379-3.156,12.055,12.055,0,0,0-.379-3.118,7.333,7.333,0,0,0-1.123-2.441,5.226,5.226,0,0,0-1.831-1.59,5.339,5.339,0,0,0-2.5-.566,5.393,5.393,0,0,0-2.526.566,5.166,5.166,0,0,0-1.824,1.59,7.317,7.317,0,0,0-1.111,2.441,12.249,12.249,0,0,0-.372,3.118,12.593,12.593,0,0,0,.372,3.156,7.66,7.66,0,0,0,1.111,2.5,5.28,5.28,0,0,0,1.824,1.646A5.212,5.212,0,0,0,99.768-87.637Z" transform="translate(-90.694 104.047)" fill="#fff"/>
    <path id="Path_298" data-name="Path 298" d="M153.88-103.168l5.71,8.342,5.685-8.342h1.5l-6.38,9.347v7.113h-2.768V-93.56l-6.579-9.608Z" transform="translate(-125.477 103.54)" fill="#fff"/>
    <path id="Path_299" data-name="Path 299" d="M212.155-87.873a4.426,4.426,0,0,0,1.2-.168,3.516,3.516,0,0,0,1.067-.5,2.612,2.612,0,0,0,.757-.807,2.124,2.124,0,0,0,.286-1.111,2.383,2.383,0,0,0-.391-1.347,4.573,4.573,0,0,0-1.024-1.08,10.237,10.237,0,0,0-1.446-.925q-.813-.435-1.657-.869t-1.657-.912a8.229,8.229,0,0,1-1.446-1.068,5.081,5.081,0,0,1-1.024-1.316,3.468,3.468,0,0,1-.391-1.669,4.309,4.309,0,0,1,.354-1.75,3.884,3.884,0,0,1,1.036-1.4,4.949,4.949,0,0,1,1.682-.925,7.194,7.194,0,0,1,2.29-.335,8,8,0,0,1,2.085.248,5.155,5.155,0,0,1,1.614.733,4.616,4.616,0,0,1,1.179,1.191,6.261,6.261,0,0,1,.782,1.638l-1.415.646a6.532,6.532,0,0,0-.633-1.384,4.38,4.38,0,0,0-.919-1.074,3.876,3.876,0,0,0-1.235-.689,4.834,4.834,0,0,0-1.583-.242,3.913,3.913,0,0,0-1.365.217,2.981,2.981,0,0,0-.974.571,2.316,2.316,0,0,0-.583.794,2.226,2.226,0,0,0-.192.9,1.956,1.956,0,0,0,.4,1.185,4.776,4.776,0,0,0,1.055,1.018,12.771,12.771,0,0,0,1.5.925q.838.447,1.707.906t1.707.955a9.5,9.5,0,0,1,1.5,1.086,5.148,5.148,0,0,1,1.055,1.291,3.13,3.13,0,0,1,.4,1.57,4.6,4.6,0,0,1-.372,1.843,4.105,4.105,0,0,1-1.117,1.5,5.494,5.494,0,0,1-1.85,1.012,8.045,8.045,0,0,1-2.569.372,7.89,7.89,0,0,1-2.123-.261,5.408,5.408,0,0,1-1.645-.757,4.981,4.981,0,0,1-1.222-1.211,6.5,6.5,0,0,1-.832-1.632l1.477-.608a5.415,5.415,0,0,0,.7,1.44,4.679,4.679,0,0,0,1.024,1.074,4.443,4.443,0,0,0,1.3.676A4.817,4.817,0,0,0,212.155-87.873Z" transform="translate(-157.223 104.047)" fill="#fff"/>
    <path id="Path_300" data-name="Path 300" d="M267.376-103.168v1.068h-5.958v15.392h-2.768V-102.1h-5.958v-1.068Z" transform="translate(-184.053 103.54)" fill="#fff"/>
    <path id="Path_301" data-name="Path 301" d="M319.1-103.168v1.068h-8.677v5.883h5.809v1.068h-5.809v7.373H319.1v1.068H307.656v-16.46Z" transform="translate(-215.73 103.54)" fill="#fff"/>
    <path id="Path_302" data-name="Path 302" d="M363.729-86.83a9.286,9.286,0,0,1-3.569-.683,9.023,9.023,0,0,1-2.88-1.868,8.75,8.75,0,0,1-1.924-2.768,8.251,8.251,0,0,1-.7-3.382,8.121,8.121,0,0,1,.316-2.272,8.174,8.174,0,0,1,.9-2.035,8.45,8.45,0,0,1,1.409-1.719,8.982,8.982,0,0,1,1.831-1.328,9.458,9.458,0,0,1,2.172-.856,9.647,9.647,0,0,1,2.445-.3,9.65,9.65,0,0,1,2.446.3,9.59,9.59,0,0,1,2.178.856,8.767,8.767,0,0,1,1.831,1.328,8.75,8.75,0,0,1,1.409,1.719A8.07,8.07,0,0,1,372.5-97.8a8.121,8.121,0,0,1,.316,2.272,8.358,8.358,0,0,1-.316,2.3,8.437,8.437,0,0,1-.906,2.079,8.886,8.886,0,0,1-1.409,1.763,8.9,8.9,0,0,1-1.831,1.365,9.219,9.219,0,0,1-2.178.881A9.482,9.482,0,0,1,363.729-86.83Zm0-.807a5.16,5.16,0,0,0,2.5-.59,5.34,5.34,0,0,0,1.831-1.646,7.675,7.675,0,0,0,1.123-2.5,12.393,12.393,0,0,0,.379-3.156,12.054,12.054,0,0,0-.379-3.118,7.332,7.332,0,0,0-1.123-2.441,5.225,5.225,0,0,0-1.831-1.59,5.339,5.339,0,0,0-2.5-.566,5.393,5.393,0,0,0-2.526.566,5.166,5.166,0,0,0-1.824,1.59,7.318,7.318,0,0,0-1.111,2.441,12.251,12.251,0,0,0-.372,3.118,12.6,12.6,0,0,0,.372,3.156,7.661,7.661,0,0,0,1.111,2.5,5.28,5.28,0,0,0,1.824,1.646A5.212,5.212,0,0,0,363.729-87.637Z" transform="translate(-242.815 104.047)" fill="#fff"/>
  </g>
</svg>
