<svg xmlns="http://www.w3.org/2000/svg" width="130.189" height="17.21" viewBox="0 0 130.189 17.21">
    <g id="Logo_Design" data-name="Logo Design" transform="translate(0.094 -0.099)">
        <path id="Path_297" data-name="Path 297" d="M99.693-86.849c-1.274,0-1.9-.545-3-1a9.93,9.93,0,0,1-3-2c-.815-.79-1.533-.945-2-2a11.681,11.681,0,0,1-1-4,6.356,6.356,0,0,1,0-2,8.228,8.228,0,0,1,1-2,13.834,13.834,0,0,1,2-2c.55-.517.33-.631,1-1a17.539,17.539,0,0,1,3-1,6.6,6.6,0,0,1,2,0,14.815,14.815,0,0,1,3,0,8.65,8.65,0,0,1,2,1,8.8,8.8,0,0,1,2,1c.546.517.607,1.371,1,2a8.094,8.094,0,0,1,1,2,6.356,6.356,0,0,1,0,2,14.255,14.255,0,0,1,0,3,8.168,8.168,0,0,1-1,2c-.393.645-.454.47-1,1a13.625,13.625,0,0,1-2,2,8.281,8.281,0,0,1-2,1A14.543,14.543,0,0,1,99.693-86.849Zm0-1c.944,0,2.275.393,3,0s.5-1.3,1-2a12.613,12.613,0,0,0,2-3,11.9,11.9,0,0,0,0-3,11.9,11.9,0,0,0,0-3c-.253-.944-1.5-1.317-2-2s-.276-1.623-1-2-2.056,0-3,0c-.96,0-1.276-.377-2,0a7.079,7.079,0,0,0-2,2,5.032,5.032,0,0,0-1,2c-.248.944-1,1.866-1,3s.752,2.039,1,3a10.706,10.706,0,0,0,1,3,7.013,7.013,0,0,0,2,2C98.417-87.455,98.733-87.849,99.693-87.849Z" transform="translate(-90.694 104.047)" fill="#fff"/>
        <path id="Path_298" data-name="Path 298" d="M153.477-103.342l6,9,6-9h1l-6,10v7h-3v-7l-6-10Z" transform="translate(-125.477 103.54)" fill="#fff"/>
        <path id="Path_299" data-name="Path 299" d="M212.223-87.849a3,3,0,0,0,1,0c.4-.111.685-.781,1-1s.809.319,1,0a7.034,7.034,0,0,0,0-2c0-.5.261-.607,0-1a4.176,4.176,0,0,0-1-1,19.165,19.165,0,0,0-2-1c-.542-.29-.437-.71-1-1s-1.458-.681-2-1-.578-.607-1-1-.739-.516-1-1-1-1.371-1-2,.764-1.462,1-2,.545-.607,1-1,.334-.777,1-1a13.446,13.446,0,0,1,3,0,8.048,8.048,0,0,1,2,0c.612.166.536.677,1,1a3.3,3.3,0,0,1,1,1,9.407,9.407,0,0,1,1,2h-1c-.166-.5-.744-.582-1-1a4.342,4.342,0,0,0-1-1c-.356-.3-.533-.839-1-1a8.272,8.272,0,0,0-2,0c-.521,0-.611-.144-1,0s-.739.764-1,1,.128-.294,0,0-1,.694-1,1a6.26,6.26,0,0,0,1,2,4.4,4.4,0,0,0,1,1c.439.319.441-.3,1,0s1.421.694,2,1,1.442.67,2,1,.561.607,1,1a8.894,8.894,0,0,1,1,2c.265.467,1,.421,1,1,0,.654-.752,1.425-1,2a5.825,5.825,0,0,1-1,2,6.281,6.281,0,0,1-2,1c-.736.248-1.024,0-2,0a7.675,7.675,0,0,1-2,0,8.15,8.15,0,0,1-2-1,3.379,3.379,0,0,1-1-1,9.694,9.694,0,0,1-1-2h1c.174.538.706.578,1,1a4.236,4.236,0,0,0,1,1c.389.294.524.843,1,1A8.507,8.507,0,0,0,212.223-87.849Z" transform="translate(-157.223 104.047)" fill="#fff"/>
        <path id="Path_300" data-name="Path 300" d="M267.053-103.342v1h-6v16h-2v-16h-6v-1Z" transform="translate(-184.053 103.54)" fill="#fff"/>
        <path id="Path_301" data-name="Path 301" d="M318.73-103.342v1h-8v6h6v1h-6v8h8v1h-11v-17Z" transform="translate(-215.73 103.54)" fill="#fff"/>
        <path id="Path_302" data-name="Path 302" d="M363.816-86.849a11.842,11.842,0,0,1-4-1,9.931,9.931,0,0,1-3-2c-.815-.79-.533-.945-1-2a11.681,11.681,0,0,1-1-4,6.355,6.355,0,0,1,0-2,8.225,8.225,0,0,1,1-2c.389-.629.449-1.483,1-2a8.974,8.974,0,0,1,2-1,8.557,8.557,0,0,1,2-1,14.815,14.815,0,0,1,3,0,6.6,6.6,0,0,1,2,0,17.675,17.675,0,0,1,3,1c.675.369.454.483,1,1a14.294,14.294,0,0,1,2,2,8.107,8.107,0,0,1,1,2,6.355,6.355,0,0,1,0,2,14.253,14.253,0,0,1,0,3,8.181,8.181,0,0,1-1,2c-.393.645-1.454.47-2,1s-.325,1.62-1,2a16.857,16.857,0,0,1-3,1A6.482,6.482,0,0,1,363.816-86.849Zm0-1c.944,0,1.276.393,2,0a7.072,7.072,0,0,0,2-2,10.705,10.705,0,0,0,1-3c.253-.961,1-1.857,1-3s-.747-2.056-1-3a5.032,5.032,0,0,0-1-2,7.138,7.138,0,0,0-2-2c-.724-.377-1.056,0-2,0-.96,0-2.276-.377-3,0s-.508,1.317-1,2-1.752,1.056-2,2a12.1,12.1,0,0,0,0,3,12.106,12.106,0,0,0,0,3,12.614,12.614,0,0,0,2,3c.492.7.276,1.607,1,2S362.856-87.849,363.816-87.849Z" transform="translate(-242.815 104.047)" fill="#fff"/>
    </g>
</svg>
