<svg xmlns="http://www.w3.org/2000/svg" viewBox="0 0 484.24 64.16"><defs><style>.cls-1{fill:#fff;}</style></defs><g id="Layer_2" data-name="Layer 2"><g id="Layer_1-2" data-name="Layer 1"><g id="Logo_Design" data-name="Logo Design"><path id="Path_297" data-name="Path 297" class="cls-1" d="M33.78,64.16a34.6,34.6,0,0,1-13.29-2.54A33.72,33.72,0,0,1,9.77,54.67,32.78,32.78,0,0,1,2.61,44.36,30.73,30.73,0,0,1,0,31.76a30.41,30.41,0,0,1,4.53-16,31.38,31.38,0,0,1,5.25-6.4A33.19,33.19,0,0,1,16.6,4.36a35.67,35.67,0,0,1,8.09-3.19,37.29,37.29,0,0,1,18.22,0A35.82,35.82,0,0,1,51,4.36,32.72,32.72,0,0,1,63.09,15.71a30.08,30.08,0,0,1,4.56,16.05,31.26,31.26,0,0,1-4.56,16.32A33.29,33.29,0,0,1,51,59.73,34,34,0,0,1,42.91,63,35.16,35.16,0,0,1,33.78,64.16Zm0-3A19.22,19.22,0,0,0,43.1,59a19.9,19.9,0,0,0,6.82-6.14,28.62,28.62,0,0,0,4.19-9.3,46.54,46.54,0,0,0,1.41-11.75,45,45,0,0,0-1.41-11.61,27.13,27.13,0,0,0-4.19-9.1A19.44,19.44,0,0,0,43.1,5.14,19.83,19.83,0,0,0,33.78,3a20.06,20.06,0,0,0-9.41,2.1,19.26,19.26,0,0,0-6.79,5.92,27.2,27.2,0,0,0-4.14,9.08,45.44,45.44,0,0,0-1.39,11.61A47,47,0,0,0,13.44,43.5a28.3,28.3,0,0,0,4.14,9.3A19.73,19.73,0,0,0,24.37,59a19.39,19.39,0,0,0,9.41,2.19Z"/><path id="Path_298" data-name="Path 298" class="cls-1" d="M105.78,1.4l21.27,31.07L148.23,1.4h5.59L130.06,36.22V62.71H119.75V37.19L95.24,1.4Z"/><path id="Path_299" data-name="Path 299" class="cls-1" d="M204.6,60.26a16.61,16.61,0,0,0,4.49-.62,13.26,13.26,0,0,0,4-1.85,9.77,9.77,0,0,0,2.82-3A7.89,7.89,0,0,0,217,50.64a8.83,8.83,0,0,0-1.45-5,16.92,16.92,0,0,0-3.81-4,38.51,38.51,0,0,0-5.39-3.45c-2-1.08-4.07-2.16-6.17-3.24S196,32.71,194,31.53a31.26,31.26,0,0,1-5.39-4,18.9,18.9,0,0,1-3.81-4.9,12.94,12.94,0,0,1-1.45-6.22,16.08,16.08,0,0,1,1.32-6.52,14.51,14.51,0,0,1,3.86-5.21,18.38,18.38,0,0,1,6.26-3.45A27.12,27.12,0,0,1,203.27,0,29.89,29.89,0,0,1,211,.93a19.17,19.17,0,0,1,6,2.73,17.12,17.12,0,0,1,4.39,4.43,23.35,23.35,0,0,1,2.91,6.11l-5.27,2.4a24.28,24.28,0,0,0-2.36-5.16,16.17,16.17,0,0,0-3.42-4,14.25,14.25,0,0,0-4.6-2.56,17.85,17.85,0,0,0-5.89-.9,14.48,14.48,0,0,0-5.09.81,11.25,11.25,0,0,0-3.63,2.12,8.57,8.57,0,0,0-2.17,3,8.45,8.45,0,0,0-.72,3.36,7.32,7.32,0,0,0,1.48,4.41,17.88,17.88,0,0,0,3.93,3.79,47.05,47.05,0,0,0,5.58,3.45l6.35,3.38q3.24,1.71,6.36,3.56a35.13,35.13,0,0,1,5.58,4,19.19,19.19,0,0,1,3.93,4.81,11.83,11.83,0,0,1,1.48,5.85,17.21,17.21,0,0,1-1.39,6.86,15.33,15.33,0,0,1-4.16,5.6,20.23,20.23,0,0,1-6.89,3.76,29.8,29.8,0,0,1-9.56,1.39,29.31,29.31,0,0,1-7.91-1,20.15,20.15,0,0,1-6.12-2.82,18.43,18.43,0,0,1-4.61-4.5,24.4,24.4,0,0,1-3.1-6.08l5.51-2.27a19.85,19.85,0,0,0,2.6,5.36,17.27,17.27,0,0,0,3.82,4,16.38,16.38,0,0,0,4.83,2.52A17.74,17.74,0,0,0,204.6,60.26Z"/><path id="Path_300" data-name="Path 300" class="cls-1" d="M310.36,1.4v4h-22.2V62.71H277.85V5.36H255.66v-4Z"/><path id="Path_301" data-name="Path 301" class="cls-1" d="M385,1.4v4H352.72V27.3h21.64v4H352.72V58.74H385v4H342.41V1.4Z"/><path id="Path_302" data-name="Path 302" class="cls-1" d="M450.38,64.16a34.6,34.6,0,0,1-13.29-2.54,33.61,33.61,0,0,1-10.72-6.95,32.62,32.62,0,0,1-7.16-10.31,30.73,30.73,0,0,1-2.61-12.6,30.41,30.41,0,0,1,4.53-16,31.06,31.06,0,0,1,5.25-6.4,33.19,33.19,0,0,1,6.82-4.95,35.49,35.49,0,0,1,8.09-3.19,37.29,37.29,0,0,1,18.22,0,35.82,35.82,0,0,1,8.11,3.19,32.72,32.72,0,0,1,12.07,11.35,30,30,0,0,1,4.55,16.05,31,31,0,0,1-1.17,8.57,31.81,31.81,0,0,1-3.38,7.75,33.29,33.29,0,0,1-12.07,11.65A34,34,0,0,1,459.51,63,35.16,35.16,0,0,1,450.38,64.16Zm0-3A19.24,19.24,0,0,0,459.7,59a19.9,19.9,0,0,0,6.82-6.14,28.62,28.62,0,0,0,4.19-9.3,46.54,46.54,0,0,0,1.41-11.75,45,45,0,0,0-1.41-11.61,27.32,27.32,0,0,0-4.19-9.1,19.44,19.44,0,0,0-6.82-5.92A19.83,19.83,0,0,0,450.38,3,20.06,20.06,0,0,0,441,5.14a19.26,19.26,0,0,0-6.79,5.92A27.2,27.2,0,0,0,430,20.14a45.44,45.44,0,0,0-1.39,11.61A46.52,46.52,0,0,0,430,43.5a28.49,28.49,0,0,0,4.13,9.3,19.73,19.73,0,0,0,6.8,6.14,19.49,19.49,0,0,0,9.41,2.2Z"/></g></g></g></svg>