<svg xmlns="http://www.w3.org/2000/svg" width="16" height="13.983" viewBox="0 0 16 13.983"><defs><style>.a{fill:#fff;fill-rule:evenodd;}</style></defs><path class="a" d="M11.453,0c-.121,0-.245,0-.365.014A4.827,4.827,0,0,0,7.943,1.725,4.829,4.829,0,0,0,4.726.142H4.579A4.477,4.477,0,0,0,0,4.466C-.086,6.7,1.441,8.6,2.6,9.826A25.576,25.576,0,0,0,7.78,13.883a.792.792,0,0,0,.805-.021A25.564,25.564,0,0,0,13.6,9.6c1.107-1.276,2.558-3.231,2.384-5.462A4.49,4.49,0,0,0,11.453,0" transform="translate(0)"/></svg>