<svg xmlns="http://www.w3.org/2000/svg" width="16" height="13.001" viewBox="0 0 16 13.001">
  <path id="Icon_-_Twitter" data-name="Icon - Twitter" d="M15.371,4.737c.01.141.01.282.01.424a9.277,9.277,0,0,1-9.34,9.34v0a9.293,9.293,0,0,1-5.032-1.472,6.679,6.679,0,0,0,.781.047,6.587,6.587,0,0,0,4.077-1.408A3.286,3.286,0,0,1,2.8,9.386,3.277,3.277,0,0,0,4.283,9.33,3.284,3.284,0,0,1,1.649,6.112V6.07a3.258,3.258,0,0,0,1.49.411A3.285,3.285,0,0,1,2.123,2.1a9.32,9.32,0,0,0,6.765,3.43,3.286,3.286,0,0,1,5.594-2.994,6.579,6.579,0,0,0,2.085-.8,3.294,3.294,0,0,1-1.443,1.816,6.551,6.551,0,0,0,1.885-.517A6.679,6.679,0,0,1,15.371,4.737Z" transform="translate(-1.009 -1.5)" fill="#fff"/>
</svg>
