<svg xmlns="http://www.w3.org/2000/svg" width="16" height="16.4" viewBox="0 0 16 16.4"><defs><style>.a{fill:#fff;}</style></defs><g transform="translate(-0.029)"><path class="a" d="M34.8,11.4a4.4,4.4,0,1,0-4.4,4.4A4.413,4.413,0,0,0,34.8,11.4Z" transform="translate(-22.4 -7)"/><path class="a" d="M17.74,54.638a5.546,5.546,0,0,1-3.48,0,4.472,4.472,0,0,0-4.88,1.32,7.562,7.562,0,0,0-1.351,4.36c0,.82.531,1,1.351,1H22.62c.82,0,1.409-.18,1.409-1a7.608,7.608,0,0,0-1.409-4.36A4.482,4.482,0,0,0,17.74,54.638Z" transform="translate(-8 -44.918)"/></g></svg>